# xmcd
#
# Track frame offsets:
#	150
#	15280
#	28682
#	45362
#	58694
#	78162
#	101467
#	116614
#	131771
#
# Disc length: 1927 seconds
#
# Revision: 1
# Processed by: cddbd v1.5.2PL0 Copyright (c) Steve Scherf et al.
# Submitted via: audiograbber 1.83.01
#
DISCID=63078509
DTITLE=Hat Fitz and Cara - After The Rain
DYEAR=1900
DGENRE=
TTITLE0=Going Home
TTITLE1=Doing It Again
TTITLE2=After The Rain
TTITLE3=Tank Man
TTITLE4=Rosie Hackett
TTITLE5=Try
TTITLE6=Won't Bow Down
TTITLE7=Running Man
TTITLE8=Keep'n On
EXTD=
EXTT0=
EXTT1=
EXTT2=
EXTT3=
EXTT4=
EXTT5=
EXTT6=
EXTT7=
EXTT8=
PLAYORDER=
